<svg width="96" height="27" viewBox="0 0 96 27" fill="none" xmlns="http://www.w3.org/2000/svg">
<path d="M4.13586 0.90802V26H0.859863V0.90802H4.13586ZM19.3313 5.91202C21.7313 5.91202 23.6753 6.64402 25.1633 8.10802C26.6513 9.54802 27.3953 11.636 27.3953 14.372V26H24.1553V14.84C24.1553 12.872 23.6633 11.372 22.6793 10.34C21.6953 9.28402 20.3513 8.75602 18.6473 8.75602C16.9193 8.75602 15.5393 9.29602 14.5073 10.376C13.4993 11.456 12.9953 13.028 12.9953 15.092V26H9.71924V6.27202H12.9953V9.08002C13.6433 8.07202 14.5193 7.29202 15.6233 6.74002C16.7513 6.18802 17.9873 5.91202 19.3313 5.91202ZM36.7426 8.97202V20.6C36.7426 21.56 36.9466 22.244 37.3546 22.652C37.7626 23.036 38.4706 23.228 39.4786 23.228H41.8906V26H38.9386C37.1146 26 35.7466 25.58 34.8346 24.74C33.9226 23.9 33.4666 22.52 33.4666 20.6V8.97202H30.9106V6.27202H33.4666V1.30402H36.7426V6.27202H41.8906V8.97202H36.7426ZM59.0719 26L53.0959 15.74H49.1359V26H45.8599V0.90802H53.9599C55.8559 0.90802 57.4519 1.23202 58.7479 1.88002C60.0679 2.52802 61.0519 3.40402 61.6999 4.50802C62.3479 5.61202 62.6719 6.87202 62.6719 8.28802C62.6719 10.016 62.1679 11.54 61.1599 12.86C60.1759 14.18 58.6879 15.056 56.6959 15.488L62.9959 26H59.0719ZM49.1359 13.112H53.9599C55.7359 13.112 57.0679 12.68 57.9559 11.816C58.8439 10.928 59.2879 9.75202 59.2879 8.28802C59.2879 6.80002 58.8439 5.64802 57.9559 4.83202C57.0919 4.01602 55.7599 3.60802 53.9599 3.60802H49.1359V13.112ZM74.7462 26.324C73.2342 26.324 71.8782 26.072 70.6782 25.568C69.4782 25.04 68.5302 24.32 67.8342 23.408C67.1382 22.472 66.7542 21.404 66.6822 20.204H70.0662C70.1622 21.188 70.6182 21.992 71.4342 22.616C72.2742 23.24 73.3662 23.552 74.7102 23.552C75.9582 23.552 76.9422 23.276 77.6622 22.724C78.3822 22.172 78.7422 21.476 78.7422 20.636C78.7422 19.772 78.3582 19.136 77.5902 18.728C76.8222 18.296 75.6342 17.876 74.0262 17.468C72.5622 17.084 71.3622 16.7 70.4262 16.316C69.5142 15.908 68.7222 15.32 68.0502 14.552C67.4022 13.76 67.0782 12.728 67.0782 11.456C67.0782 10.448 67.3782 9.52402 67.9782 8.68402C68.5782 7.84402 69.4302 7.18402 70.5342 6.70402C71.6382 6.20002 72.8982 5.94802 74.3142 5.94802C76.4982 5.94802 78.2622 6.50002 79.6062 7.60402C80.9502 8.70802 81.6702 10.22 81.7662 12.14H78.4902C78.4182 11.108 77.9982 10.28 77.2302 9.65602C76.4862 9.03202 75.4782 8.72002 74.2062 8.72002C73.0302 8.72002 72.0942 8.97202 71.3982 9.47602C70.7022 9.98002 70.3542 10.64 70.3542 11.456C70.3542 12.104 70.5582 12.644 70.9662 13.076C71.3982 13.484 71.9262 13.82 72.5502 14.084C73.1982 14.324 74.0862 14.6 75.2142 14.912C76.6302 15.296 77.7822 15.68 78.6702 16.064C79.5582 16.424 80.3142 16.976 80.9382 17.72C81.5862 18.464 81.9222 19.436 81.9462 20.636C81.9462 21.716 81.6462 22.688 81.0462 23.552C80.4462 24.416 79.5942 25.1 78.4902 25.604C77.4102 26.084 76.1622 26.324 74.7462 26.324ZM90.5668 8.97202V20.6C90.5668 21.56 90.7708 22.244 91.1788 22.652C91.5868 23.036 92.2948 23.228 93.3028 23.228H95.7148V26H92.7628C90.9388 26 89.5708 25.58 88.6588 24.74C87.7468 23.9 87.2908 22.52 87.2908 20.6V8.97202H84.7348V6.27202H87.2908V1.30402H90.5668V6.27202H95.7148V8.97202H90.5668Z" fill="white"/>
</svg>
